<svg id="Layer_1" data-name="Layer 1" xmlns="http://www.w3.org/2000/svg" viewBox="0 0 42.62 30.5"><defs><style>.cls-1{fill:#1cb2c7;}.cls-2{fill:#010101;}</style></defs><title>logo</title><g id="_Group_" data-name="&lt;Group&gt;"><path class="cls-1" d="M46.29,2.62a1.33,1.33,0,0,1-.14-.6A1.27,1.27,0,0,1,47.43.75L74.1.88a1.28,1.28,0,1,1,0,2.56L47.43,3.32A1.32,1.32,0,0,1,46.29,2.62Z" transform="translate(-32.76 -0.75)"/></g><path class="cls-1" d="M37.77,22.72a1.31,1.31,0,0,1-.12-.88,11.05,11.05,0,0,1,5.61-7.34,15.44,15.44,0,0,1,7.17-1.42l19.63.12-11,13.33c-1,.5-2.85,2.58-3.43,2.19s1-2.76,1.41-3.34l8.12-9.64-14.79-.09a13.16,13.16,0,0,0-6,1.13,8.56,8.56,0,0,0-4.31,5.65,1.28,1.28,0,0,1-1.53,1A1.43,1.43,0,0,1,37.77,22.72Z" transform="translate(-32.76 -0.75)"/><g id="_Group_2" data-name="&lt;Group&gt;"><path class="cls-1" d="M34.37,22.8A15.27,15.27,0,0,1,41.2,2.32,14.92,14.92,0,0,1,48.47.76l-.7,2.56a10.14,10.14,0,0,0-5.42,1.29A12.71,12.71,0,0,0,53.73,27.35a20.34,20.34,0,0,0,5.56-4.6l-.17,3.77a13.64,13.64,0,0,1-4.25,3.12A15.29,15.29,0,0,1,34.37,22.8Z" transform="translate(-32.76 -0.75)"/></g><path class="cls-2" d="M51,6H52l1,1.86L54,6h1.07l-1.56,3v2.24h-1V8.92Z" transform="translate(-32.76 -0.75)"/><path class="cls-2" d="M45.93,6a2.43,2.43,0,0,1,1.79.75,2.53,2.53,0,0,1,.75,1.84,2.48,2.48,0,0,1-.75,1.82,2.45,2.45,0,0,1-1.79.74,2.51,2.51,0,0,1-1.84-.76,2.58,2.58,0,0,1-.73-1.82,2.55,2.55,0,0,1,.34-1.3,2.44,2.44,0,0,1,.93-.93A2.6,2.6,0,0,1,45.93,6Zm0,.91a1.54,1.54,0,0,0-1.14.47,1.72,1.72,0,0,0-.46,1.21A1.58,1.58,0,0,0,44.9,9.9a1.62,1.62,0,0,0,1,.37,1.48,1.48,0,0,0,1.13-.49,1.57,1.57,0,0,0,.46-1.18,1.65,1.65,0,0,0-.47-1.18A1.53,1.53,0,0,0,45.92,6.93Z" transform="translate(-32.76 -0.75)"/><path class="cls-2" d="M57.81,6h.9V9.22a2.07,2.07,0,0,0,.07.6.59.59,0,0,0,.24.28.74.74,0,0,0,.4.1.73.73,0,0,0,.43-.11.57.57,0,0,0,.25-.29,2.16,2.16,0,0,0,.07-.69V6h1V9a4.06,4.06,0,0,1-.09,1,1.56,1.56,0,0,1-.32.57,1.48,1.48,0,0,1-.56.4,1.78,1.78,0,0,1-.72.14,1.75,1.75,0,0,1-1-.25,1.38,1.38,0,0,1-.57-.63A3.48,3.48,0,0,1,57.8,9V6Z" transform="translate(-32.76 -0.75)"/><path class="cls-2" d="M60.18,6h1.07a3.68,3.68,0,0,1,1.26.16,1.2,1.2,0,0,1,.6.51,1.53,1.53,0,0,1,.23.84,1.39,1.39,0,0,1-.25.86,1.48,1.48,0,0,1-.76.52l1.27,2.31H62.42L61.29,9h-.1v2.14h-1Zm1,2h.3a1.15,1.15,0,0,0,.62-.11.46.46,0,0,0,.17-.4.44.44,0,0,0-.08-.28A.55.55,0,0,0,62,7a1.92,1.92,0,0,0-.52,0h-.26Z" transform="translate(-32.76 -0.75)"/><path class="cls-2" d="M56.13,6a2.43,2.43,0,0,1,1.79.75,2.53,2.53,0,0,1,.75,1.84,2.48,2.48,0,0,1-.75,1.82,2.45,2.45,0,0,1-1.79.74,2.51,2.51,0,0,1-1.84-.76,2.58,2.58,0,0,1-.73-1.82,2.55,2.55,0,0,1,.34-1.3,2.44,2.44,0,0,1,.93-.93A2.6,2.6,0,0,1,56.13,6Zm0,.91A1.54,1.54,0,0,0,55,7.4a1.68,1.68,0,0,0-.46,1.21A1.58,1.58,0,0,0,55.1,9.9a1.62,1.62,0,0,0,1,.37,1.49,1.49,0,0,0,1.13-.49,1.61,1.61,0,0,0,.46-1.18,1.65,1.65,0,0,0-.47-1.18A1.51,1.51,0,0,0,56.12,6.93Z" transform="translate(-32.76 -0.75)"/><path class="cls-2" d="M47.43,6H48.5a3.78,3.78,0,0,1,1.27.16,1.22,1.22,0,0,1,.59.51,1.53,1.53,0,0,1,.23.84,1.39,1.39,0,0,1-.25.86,1.49,1.49,0,0,1-.75.52l1.26,2.31H49.68L48.54,9h-.09v2.14h-1Zm1,2h.29a1.15,1.15,0,0,0,.62-.11.46.46,0,0,0,.17-.4.44.44,0,0,0-.08-.28A.52.52,0,0,0,49.23,7a2,2,0,0,0-.52,0h-.26Z" transform="translate(-32.76 -0.75)"/><path class="cls-2" d="M70.9,6h1v4.29h1.47v.9H70.9Z" transform="translate(-32.76 -0.75)"/><path class="cls-2" d="M41.68,6h2.59V7H42.69V8h1.58v.9H42.69v2.26h-1Z" transform="translate(-32.76 -0.75)"/><path class="cls-2" d="M68,6h2.82V7H69v.9h1.8v.9H69v1.36h1.8v1H68Z" transform="translate(-32.76 -0.75)"/><path class="cls-2" d="M72.81,6h1v4.29H75.3v.9H72.81Z" transform="translate(-32.76 -0.75)"/><path class="cls-2" d="M68.92,7l-.65.63a2.05,2.05,0,0,0-1.51-.71,1.61,1.61,0,0,0-1.2.49,1.58,1.58,0,0,0-.48,1.19,1.71,1.71,0,0,0,.21.88,1.6,1.6,0,0,0,.61.6,1.7,1.7,0,0,0,.87.21,1.78,1.78,0,0,0,.74-.15,2.79,2.79,0,0,0,.75-.56l.64.67a3.36,3.36,0,0,1-1,.74,2.78,2.78,0,0,1-1.11.21A2.52,2.52,0,0,1,64.13,8.6a2.48,2.48,0,0,1,.34-1.31,2.43,2.43,0,0,1,1-.92A2.58,2.58,0,0,1,66.77,6a2.81,2.81,0,0,1,1.17.26A2.89,2.89,0,0,1,68.92,7Z" transform="translate(-32.76 -0.75)"/></svg>